<?xml version="1.0" standalone="no"?>
<!DOCTYPE svg PUBLIC "-//W3C//DTD SVG 20010904//EN"
 "http://www.w3.org/TR/2001/REC-SVG-20010904/DTD/svg10.dtd">
<svg version="1.0" xmlns="http://www.w3.org/2000/svg"
 width="300.000000pt" height="300.000000pt" viewBox="0 0 300.000000 300.000000"
 preserveAspectRatio="xMidYMid meet">
<metadata>
Created by potrace 1.11, written by Peter Selinger 2001-2013
</metadata>
<g transform="translate(0.000000,300.000000) scale(0.100000,-0.100000)"
fill="#000000" stroke="none">
<path d="M657 2663 c-2 -5 -4 -36 -5 -69 -1 -51 2 -63 16 -66 9 -2 185 -3 390
-3 l372 1 0 -423 c0 -233 -2 -423 -5 -423 -3 0 -149 144 -325 320 -176 176
-326 320 -333 320 -7 0 -36 -11 -64 -24 l-50 -25 1 -808 1 -808 70 0 70 0 0
722 c0 398 1 723 3 723 1 0 144 -142 317 -315 l315 -315 0 -570 0 -570 70 0
70 0 0 495 c0 272 2 495 4 495 3 0 150 -145 326 -322 l322 -321 54 18 c30 10
58 23 63 29 9 12 11 1615 2 1617 -32 8 -131 4 -134 -5 -2 -6 -3 -332 -3 -723
1 -392 0 -713 -2 -713 -1 0 -144 142 -317 315 l-315 316 2 497 3 497 385 1
385 0 2 72 2 72 -844 0 c-464 0 -846 -3 -848 -7z"/>
</g>
</svg>
